<svg id="auth" xmlns="http://www.w3.org/2000/svg" viewBox="0 0 286 166"><defs><style>.cls-1{fill:#008b9a;}.cls-2{fill:#fff;}.cls-3{fill:#98b121;}</style></defs><rect class="cls-1" x="8" y="9.4" width="269" height="147.55" rx="31.67"/><path class="cls-2" d="M71.76,61.08a11.62,11.62,0,0,1,8.45,3.64q3.63,3.65,3.63,10.64,0,11.08-8.4,20.86T52.67,106A19.87,19.87,0,0,1,40,101.59,14.1,14.1,0,0,1,34.41,90a14.75,14.75,0,0,1,.91-5q1.36-3.18,2.41-5.86t3.59-8.72q2.53-6,4.58-10.86C47.27,56.35,48.64,53,50,49.43s2.09-5.83,2.09-6.86c0-1.21-.74-1.89-2.23-2a47.49,47.49,0,0,0-4.77-.22V38.84H71.94L60.22,66.94a25.87,25.87,0,0,1,4.63-4.35C66.3,61.59,68.6,61.08,71.76,61.08Zm-2.91,6a4.6,4.6,0,0,0-.55-2.54,1.93,1.93,0,0,0-1.72-.82,4.26,4.26,0,0,0-2.23.78,14,14,0,0,0-2.95,2.81,34.29,34.29,0,0,0-4.09,7.08q-2.37,5.05-6.09,14.44t-3.73,12.85q0,2.91,2.73,2.91,2.09,0,4.13-2.77a69.68,69.68,0,0,0,5.18-8.85,134.43,134.43,0,0,0,6.23-14.35Q68.85,70.31,68.85,67Z"/><path class="cls-2" d="M132.27,61.08a10.73,10.73,0,0,1,7.32,2.68c2,1.79,3,4.47,3,8.05a15.35,15.35,0,0,1-1,5.22q-1,2.77-2.45,6T134,93.34q-3.74,7.18-3.73,8.45a1.44,1.44,0,0,0,.37,1.09,1.48,1.48,0,0,0,1.09.37,4.88,4.88,0,0,0,2.45-1.09,28.62,28.62,0,0,0,4.22-4.09,41.7,41.7,0,0,0,5.68-9l1.18.63a69.72,69.72,0,0,1-8,11.88Q133.37,106,126.36,106q-4.81,0-7.26-2.91a10.74,10.74,0,0,1-2.46-7.18,14.37,14.37,0,0,1,.64-4.72q.63-1.83,3.86-8.36t5.32-10.73q2.08-4.17,2.09-6.54a2,2,0,0,0-.37-1.32,1.5,1.5,0,0,0-1.18-.4,4.89,4.89,0,0,0-2.77,1.36,25.66,25.66,0,0,0-4,4.36,47.31,47.31,0,0,0-4.73,8.17l-13.17,27.34H84.66L100.1,70.58c.37-.91.79-1.93,1.28-3a7.26,7.26,0,0,0,.72-2.4,1.25,1.25,0,0,0-.27-.91A1.11,1.11,0,0,0,101,64a5.32,5.32,0,0,0-2.9,1.13,17.78,17.78,0,0,0-3.23,3,46.33,46.33,0,0,0-3.45,4.58c-1.25,1.85-2.47,3.77-3.68,5.77l-1.18-.55a66,66,0,0,1,8.58-12.19,13.64,13.64,0,0,1,10.41-4.56,8.93,8.93,0,0,1,6.86,2.69c1.66,1.79,2.5,4.29,2.5,7.51a17.85,17.85,0,0,1-.41,4c-.28,1.18-.5,2.14-.69,2.87a62.82,62.82,0,0,1,7.87-12.61Q125.46,61.09,132.27,61.08Z"/><path class="cls-2" d="M170.16,82.1l-9.27,23H143.27q2.44-6,6.17-15.09T158,68.88q4.86-12,6.91-17.22T167.48,45a7.87,7.87,0,0,0,.5-2.45c0-1.39-1-2.09-3-2.09l-4-.18V38.84h26.81l-17.17,42a10.47,10.47,0,0,0,7.27-3.52c1.57-2.78,3-5.17,4.31-7.19a24.73,24.73,0,0,1,5.86-6,13.41,13.41,0,0,1,8.27-3,9.23,9.23,0,0,1,6.32,2A6.93,6.93,0,0,1,205,68.61a8.2,8.2,0,0,1-2.45,6.07,8.09,8.09,0,0,1-5.91,2.44,7.37,7.37,0,0,1-5.17-1.9,6.28,6.28,0,0,1-2.1-4.88,7.18,7.18,0,0,1,1.28-4.07l2.81-3a1.45,1.45,0,0,0-.63-.18q-2.37,0-4.45,3.36c-1,1.88-2,3.75-3,5.63a16.71,16.71,0,0,1-3.27,4.09,64.55,64.55,0,0,1-5.37,3.73,21.23,21.23,0,0,1,6.37,1.4,13,13,0,0,1,4.77,2.91,7.75,7.75,0,0,1,2,3.27,13,13,0,0,1,.41,3.32,19.46,19.46,0,0,1-.59,4.63q-.59,2.46-1.22,5a2.37,2.37,0,0,0,.36,1.41,1.26,1.26,0,0,0,1.09.5c1.33,0,2.79-.94,4.36-2.82s2.76-3.37,3.55-4.5,1.66-2.49,2.63-4.13l1.09.64q-4.27,7.73-8.4,11.08t-11,3.36a11.37,11.37,0,0,1-7.59-2.72A9,9,0,0,1,171.25,96a25.41,25.41,0,0,1,1.46-6,33.37,33.37,0,0,0,1.45-5.23c0-1.27-.26-2-.77-2.31A8,8,0,0,0,170.16,82.1Z"/><path class="cls-2" d="M256.48,69.47A10,10,0,0,1,254,76.28a7.83,7.83,0,0,1-6.18,2.82,9,9,0,0,1-5.68-1.87A6.23,6.23,0,0,1,239.76,72a5.94,5.94,0,0,1,.78-3q.77-1.37,1.68-2.91c0-.54-.31-.81-.91-.81q-1.37,0-3.68,3.49a69.74,69.74,0,0,0-4.86,9l-13.18,27.36H201.87L217.5,70.56a12.45,12.45,0,0,0,.82-2.14,8,8,0,0,0,.36-2.23,2,2,0,0,0-.27-1.18,1.06,1.06,0,0,0-.91-.36A4.3,4.3,0,0,0,215,65.83a17.57,17.57,0,0,0-2.77,2.86q-1.32,1.69-3.32,4.87c-1.33,2.12-2.39,3.93-3.18,5.45l-1.18-.46q5.73-11,9.9-14.22a15,15,0,0,1,9.36-3.22c2.91,0,5.08.9,6.5,2.72a11.81,11.81,0,0,1,2.14,7.45,15.07,15.07,0,0,1-.46,3.64,22.13,22.13,0,0,1-.82,2.72l.28.09a69,69,0,0,1,7.4-12.63q3.23-4,9.13-4,4.27,0,6.41,2.63A8.94,8.94,0,0,1,256.48,69.47Z"/><path class="cls-3" d="M165.52,118.14q0,4.85-3.86,9.63a11.6,11.6,0,0,1-9.32,4.78,5.86,5.86,0,0,1-3.22-.79q-1.23-.8-1.23-3.09-1.06,2.43-2.18,5.14c-.75,1.81-1.25,3-1.48,3.64s-.46,1.23-.69,1.85a4.59,4.59,0,0,0-.33,1.28.79.79,0,0,0,.69.85,17.56,17.56,0,0,0,3.11.16v.7H130.12v-.7c.18,0,.41,0,.71-.05s.75-.08,1.39-.17a3.31,3.31,0,0,0,1.69-.77,13.33,13.33,0,0,0,2.16-3.9l9-21.34a12.58,12.58,0,0,0,.48-1.3,3.66,3.66,0,0,0,.18-1,1,1,0,0,0-.14-.59.48.48,0,0,0-.44-.2,2.11,2.11,0,0,0-1.25.53,9.83,9.83,0,0,0-1.52,1.52,25.9,25.9,0,0,0-1.79,2.42,23.2,23.2,0,0,0-1.56,2.72l-.58-.27a25.92,25.92,0,0,1,3.84-5.93,6.53,6.53,0,0,1,5-2.45,4.55,4.55,0,0,1,3.55,1.39,5.68,5.68,0,0,1,1.26,4l0,1.1a27.44,27.44,0,0,1,3.08-4.83,5,5,0,0,1,4-1.61,6,6,0,0,1,4.46,2A7.43,7.43,0,0,1,165.52,118.14Zm-7.18-4.72a2.21,2.21,0,0,0-.25-1.17.79.79,0,0,0-.72-.37q-1,0-2.25,1.5a18.26,18.26,0,0,0-2.38,3.94q-1.16,2.45-2.67,6.44a19.17,19.17,0,0,0-1.52,5.57,2.32,2.32,0,0,0,.33,1.35,1.13,1.13,0,0,0,1,.46,2.27,2.27,0,0,0,1.87-1.34q.82-1.35,2.14-3.9a64.64,64.64,0,0,0,2.89-6.71A20,20,0,0,0,158.34,113.42Z"/><path class="cls-3" d="M192.06,114.83a4.89,4.89,0,0,1-1.19,3.31,3.81,3.81,0,0,1-3,1.36,4.35,4.35,0,0,1-2.75-.9,3,3,0,0,1-1.17-2.54,2.9,2.9,0,0,1,.37-1.45c.25-.44.52-.91.82-1.41,0-.27-.15-.4-.44-.4s-1,.57-1.79,1.7a33.75,33.75,0,0,0-2.36,4.34l-6.39,13.27h-8.6l7.59-16.75a6.15,6.15,0,0,0,.39-1,3.69,3.69,0,0,0,.18-1.08,1,1,0,0,0-.13-.57.52.52,0,0,0-.44-.18,2.11,2.11,0,0,0-1.24.58,8.09,8.09,0,0,0-1.34,1.39,27.1,27.1,0,0,0-1.61,2.35c-.65,1-1.16,1.91-1.54,2.65l-.58-.22c1.85-3.56,3.46-5.86,4.81-6.9a7.26,7.26,0,0,1,4.54-1.57,3.76,3.76,0,0,1,3.15,1.33,5.7,5.7,0,0,1,1,3.61,7.66,7.66,0,0,1-.22,1.77,11.82,11.82,0,0,1-.4,1.32l.13,0a33.94,33.94,0,0,1,3.59-6.13,5.38,5.38,0,0,1,4.43-1.94,3.76,3.76,0,0,1,3.11,1.28A4.35,4.35,0,0,1,192.06,114.83Z"/><path class="cls-3" d="M214.06,119.5a12.2,12.2,0,0,1-4.26,9,14.51,14.51,0,0,1-10.38,4,7.79,7.79,0,0,1-3.35-.7,11,11,0,0,1-3.2-2.52q-1.69-1.8-1.69-5.51,0-4.89,4.21-9a14.38,14.38,0,0,1,10.42-4.08,7.53,7.53,0,0,1,3.35.69,9.13,9.13,0,0,1,2.69,2.05,7.39,7.39,0,0,1,1.74,2.89A10.55,10.55,0,0,1,214.06,119.5ZM208,113a1.68,1.68,0,0,0-.33-1.1,1.35,1.35,0,0,0-1.08-.4,2.49,2.49,0,0,0-1.72,1.08,27,27,0,0,0-2.66,4.54c-1.17,2.31-2.27,4.8-3.33,7.45a18.4,18.4,0,0,0-1.59,5.63,1.94,1.94,0,0,0,.35,1.25,1.31,1.31,0,0,0,1.06.42,2.26,2.26,0,0,0,1.59-1,24.75,24.75,0,0,0,2.44-4c1.08-2.06,2.22-4.58,3.44-7.57S208,114.23,208,113Z"/></svg>